<?xml version="1.0" standalone="no"?>
<!DOCTYPE svg PUBLIC "-//W3C//DTD SVG 20010904//EN"
 "http://www.w3.org/TR/2001/REC-SVG-20010904/DTD/svg10.dtd">
<svg version="1.0" xmlns="http://www.w3.org/2000/svg"
 width="2083.000000pt" height="1089.000000pt" viewBox="0 0 2083.000000 1089.000000"
 preserveAspectRatio="xMidYMid meet">

<g transform="translate(0.000000,1089.000000) scale(0.100000,-0.100000)"
fill="#FFF8DC" stroke="none">
<path d="M3160 10800 c0 -105 -20 -93 175 -110 261 -22 515 -87 715 -181 295
-140 496 -336 578 -562 46 -128 56 -191 49 -335 -8 -178 -58 -391 -202 -867
-35 -115 -538 -1570 -1119 -3232 -754 -2161 -1081 -3084 -1146 -3240 -288
-684 -505 -1121 -676 -1360 -276 -384 -547 -558 -1022 -653 -81 -16 -219 -39
-307 -50 -88 -12 -170 -23 -182 -26 -22 -4 -23 -9 -23 -94 l0 -90 1960 0 1960
0 0 90 c0 105 23 91 -190 115 -285 32 -581 105 -730 180 -149 76 -313 217
-399 344 -127 186 -184 420 -160 653 20 203 64 364 198 731 48 133 637 1845
1307 3804 670 1959 1221 3560 1225 3558 3 -2 923 -2135 2045 -4739 l2039
-4736 86 0 86 0 2041 4783 c2031 4757 2137 5004 2152 5021 15 15 150 -202 241
-387 49 -99 89 -189 89 -198 0 -34 -171 -462 -1913 -4794 -971 -2415 -1769
-4398 -1772 -4407 -7 -17 5 -18 167 -18 l175 0 12 28 c105 227 1088 2474 1115
2547 21 55 93 237 161 405 68 168 213 544 323 835 110 292 203 538 207 548 7
16 98 17 1763 15 l1755 -3 443 -1088 c507 -1245 538 -1323 593 -1507 66 -221
84 -325 85 -490 1 -161 -14 -246 -66 -382 -63 -165 -216 -346 -389 -461 -182
-120 -473 -203 -869 -247 -52 -6 -110 -13 -127 -16 l-33 -5 0 -89 0 -90 2625
0 2625 0 0 90 c0 85 -1 90 -22 94 -13 3 -95 14 -183 26 -562 73 -858 193
-1114 449 -256 256 -452 599 -788 1376 -115 267 -3499 8431 -3521 8495 -8 25
-44 116 -80 203 l-65 157 -1643 0 -1644 0 0 -89 c0 -101 0 -101 81 -101 134 0
614 -63 808 -106 219 -49 405 -130 518 -226 65 -55 183 -191 183 -210 0 -13
-3259 -7769 -3269 -7780 -3 -4 -783 1909 -1732 4250 l-1726 4257 -1736 3
-1737 2 0 -90z m11819 -4034 c457 -1127 829 -2051 828 -2053 -2 -2 -733 -2
-1625 -1 l-1620 3 786 2057 c433 1131 790 2054 793 2050 4 -4 381 -929 838
-2056z"/>
</g>
</svg>
